<svg height="70" viewBox="0 -4 512 511" xmlns="http://www.w3.org/2000/svg">
  <path d="m401.066406 444.234375c-4.710937 0-8.53125-3.820313-8.53125-8.535156v-162.132813c0-4.710937 3.820313-8.53125 8.53125-8.53125 4.714844 0 8.535156 3.820313 8.535156 8.53125v162.132813c0 4.714843-3.820312 8.535156-8.535156 8.535156zm0 0" fill="#36b6d6"/>
  <path d="m110.933594 444.234375c-4.714844 0-8.535156-3.820313-8.535156-8.535156v-162.132813c0-4.710937 3.820312-8.53125 8.535156-8.53125 4.710937 0 8.53125 3.820313 8.53125 8.53125v162.132813c0 4.714843-3.820313 8.535156-8.53125 8.535156zm0 0" fill="#36b6d6"/>
  <path d="m481.324219 173.25-47.789063-18.824219c-41-17.390625-170.929687-67.339843-170.929687-67.339843-4.246094-1.671876-8.964844-1.671876-13.210938 0l-87.363281 34.417968c-16.964844 6.996094-59.632812 24.0625-83.523438 32.921875l-47.789062 18.824219c-13.324219 5.042969-22.136719 17.804688-22.136719 32.050781 0 14.246094 8.8125 27.007813 22.136719 32.050781l218.71875 86.1875c4.246094 1.671876 8.964844 1.671876 13.210938 0l218.71875-86.1875c13.320312-5.050781 22.125-17.820312 22.117187-32.066406-.011719-14.246094-8.832031-27.003906-22.160156-32.035156zm0 0" fill="#ebeced"/>
  <path d="m256 333.300781c-3.332031-.003906-6.636719-.632812-9.738281-1.851562l-218.707031-86.1875c-16.589844-6.324219-27.55078175-22.234375-27.55078175-39.988281 0-17.753907 10.96093775-33.660157 27.55078175-39.984376l47.785156-18.835937c23.980468-8.875 67.039062-26.101563 83.429687-32.859375l87.492188-34.441406c6.257812-2.46875 13.21875-2.46875 19.476562 0 1.234375.476562 130.464844 50.175781 171.125 67.414062l47.582031 18.773438c16.589844 6.324218 27.550782 22.234375 27.550782 39.984375 0 17.753906-10.960938 33.664062-27.550782 39.988281l-218.707031 86.1875c-3.105469 1.207031-6.410156 1.816406-9.738281 1.800781zm0-238.933593c-1.1875 0-2.359375.222656-3.464844.65625l-87.382812 34.414062c-16.84375 6.957031-59.375 23.980469-83.726563 32.992188l-47.617187 18.773437c-10.070313 3.753906-16.746094 13.367187-16.746094 24.113281s6.675781 20.363282 16.746094 24.117188l218.710937 86.183594c2.238281.878906 4.722657.878906 6.960938 0l218.710937-86.183594c10.070313-3.753906 16.746094-13.371094 16.746094-24.117188s-6.675781-20.359375-16.746094-24.113281l-47.789062-18.824219c-40.601563-17.214844-169.554688-66.808594-170.851563-67.304687-1.128906-.457031-2.332031-.695313-3.550781-.707031zm0 0" fill="#eaca6f"/>
  <path d="m25.601562 435.699219h460.796876c9.425781 0 17.066406 7.640625 17.066406 17.066406v34.132813c0 9.425781-7.640625 17.066406-17.066406 17.066406h-460.796876c-9.425781 0-17.066406-7.640625-17.066406-17.066406v-34.132813c0-9.425781 7.640625-17.066406 17.066406-17.066406zm0 0" fill="#23b972"/>
  <path d="m281.601562 145.566406c0 14.140625-11.464843 25.601563-25.601562 25.601563s-25.601562-11.460938-25.601562-25.601563c0-14.136718 11.464843-25.601562 25.601562-25.601562s25.601562 11.464844 25.601562 25.601562zm0 0" fill="#cd4f38"/>
  <path d="m264.535156 290.632812c0 4.714844-3.824218 8.535157-8.535156 8.535157s-8.535156-3.820313-8.535156-8.535157c0-4.710937 3.824218-8.53125 8.535156-8.53125s8.535156 3.820313 8.535156 8.53125zm0 0" fill="#36b6d6"/>
  <path d="m93.867188 222.367188c0 4.710937-3.820313 8.53125-8.535157 8.53125-4.710937 0-8.53125-3.820313-8.53125-8.53125 0-4.714844 3.820313-8.535157 8.53125-8.535157 4.714844 0 8.535157 3.820313 8.535157 8.535157zm0 0" fill="#36b6d6"/>
  <path d="m221.867188 273.566406c0 4.714844-3.820313 8.535156-8.535157 8.535156-4.710937 0-8.53125-3.820312-8.53125-8.535156 0-4.710937 3.820313-8.53125 8.53125-8.53125 4.714844 0 8.535157 3.820313 8.535157 8.53125zm0 0" fill="#36b6d6"/>
  <path d="m179.199219 256.5c0 4.710938-3.820313 8.535156-8.53125 8.535156-4.714844 0-8.535157-3.824218-8.535157-8.535156s3.820313-8.535156 8.535157-8.535156c4.710937 0 8.53125 3.824218 8.53125 8.535156zm0 0" fill="#36b6d6"/>
  <path d="m136.535156 239.433594c0 4.710937-3.824218 8.53125-8.535156 8.53125s-8.535156-3.820313-8.535156-8.53125c0-4.714844 3.824218-8.535156 8.535156-8.535156s8.535156 3.820312 8.535156 8.535156zm0 0" fill="#36b6d6"/>
  <path d="m435.199219 222.367188c0 4.710937-3.820313 8.53125-8.53125 8.53125-4.714844 0-8.535157-3.820313-8.535157-8.53125 0-4.714844 3.820313-8.535157 8.535157-8.535157 4.710937 0 8.53125 3.820313 8.53125 8.535157zm0 0" fill="#36b6d6"/>
  <path d="m307.199219 273.566406c0 4.714844-3.820313 8.535156-8.53125 8.535156-4.714844 0-8.535157-3.820312-8.535157-8.535156 0-4.710937 3.820313-8.53125 8.535157-8.53125 4.710937 0 8.53125 3.820313 8.53125 8.53125zm0 0" fill="#36b6d6"/>
  <path d="m349.867188 256.5c0 4.710938-3.820313 8.535156-8.535157 8.535156-4.710937 0-8.53125-3.824218-8.53125-8.535156s3.820313-8.535156 8.53125-8.535156c4.714844 0 8.535157 3.824218 8.535157 8.535156zm0 0" fill="#36b6d6"/>
  <path d="m392.535156 239.433594c0 4.710937-3.824218 8.53125-8.535156 8.53125s-8.535156-3.820313-8.535156-8.53125c0-4.714844 3.824218-8.535156 8.535156-8.535156s8.535156 3.820312 8.535156 8.535156zm0 0" fill="#36b6d6"/>
  <path d="m332.800781 145.566406c0 14.140625-11.460937 25.601563-25.601562 25.601563-14.136719 0-25.597657-11.460938-25.597657-25.601563 0-14.136718 11.460938-25.601562 25.597657-25.601562 14.140625 0 25.601562 11.464844 25.601562 25.601562zm0 0" fill="#ed634c"/>
  <path d="m384 145.566406c0 14.140625-11.460938 25.601563-25.601562 25.601563-14.136719 0-25.597657-11.460938-25.597657-25.601563 0-14.136718 11.460938-25.601562 25.597657-25.601562 14.140624 0 25.601562 11.464844 25.601562 25.601562zm0 0" fill="#cd4f38"/>
  <path d="m435.199219 145.566406c0 14.140625-11.460938 25.601563-25.597657 25.601563-14.140624 0-25.601562-11.460938-25.601562-25.601563 0-14.136718 11.460938-25.601562 25.601562-25.601562 14.136719 0 25.597657 11.464844 25.597657 25.601562zm0 0" fill="#ed634c"/>
  <path d="m128 145.566406c0 14.140625-11.460938 25.601563-25.601562 25.601563-14.136719 0-25.597657-11.460938-25.597657-25.601563 0-14.136718 11.460938-25.601562 25.597657-25.601562 14.140624 0 25.601562 11.464844 25.601562 25.601562zm0 0" fill="#ed634c"/>
  <path d="m179.199219 145.566406c0 14.140625-11.460938 25.601563-25.597657 25.601563-14.140624 0-25.601562-11.460938-25.601562-25.601563 0-14.136718 11.460938-25.601562 25.601562-25.601562 14.136719 0 25.597657 11.464844 25.597657 25.601562zm0 0" fill="#cd4f38"/>
  <g fill="#ed634c">
    <path d="m230.398438 145.566406c0 14.140625-11.460938 25.601563-25.597657 25.601563-14.140625 0-25.601562-11.460938-25.601562-25.601563 0-14.136718 11.460937-25.601562 25.601562-25.601562 14.136719 0 25.597657 11.464844 25.597657 25.601562zm0 0"/>
    <path d="m460.800781 119.964844c-4.714843 0-8.535156-3.820313-8.535156-8.53125v-102.398438c0-4.714844 3.820313-8.535156 8.535156-8.535156 4.710938 0 8.53125 3.820312 8.53125 8.535156v102.398438c0 4.710937-3.820312 8.53125-8.53125 8.53125zm0 0"/>
    <path d="m503.464844 68.765625h-85.332032c-4.710937 0-8.53125-3.820313-8.53125-8.53125 0-4.714844 3.820313-8.535156 8.53125-8.535156h85.332032c4.714844 0 8.535156 3.820312 8.535156 8.535156 0 4.710937-3.820312 8.53125-8.535156 8.53125zm0 0"/>
    <path d="m435.199219 94.367188c-3.449219 0-6.5625-2.082032-7.882813-5.269532-1.320312-3.1875-.589844-6.855468 1.851563-9.296875l51.199219-51.199219c2.140624-2.21875 5.316406-3.109374 8.296874-2.328124 2.984376.78125 5.316407 3.109374 6.097657 6.09375.777343 2.984374-.109375 6.15625-2.328125 8.300781l-51.199219 51.199219c-1.601563 1.601562-3.769531 2.5-6.035156 2.5zm0 0"/>
    <path d="m486.398438 94.367188c-2.261719 0-4.429688-.898438-6.03125-2.5l-51.199219-51.199219c-3.234375-3.351563-3.1875-8.671875.101562-11.964844 3.292969-3.289063 8.617188-3.335937 11.964844-.101563l51.199219 51.199219c2.4375 2.441407 3.167968 6.109375 1.847656 9.296875s-4.429688 5.269532-7.882812 5.269532zm0 0"/>
    <path d="m51.199219 119.964844c-4.710938 0-8.53125-3.820313-8.53125-8.53125v-102.398438c0-4.714844 3.820312-8.535156 8.53125-8.535156 4.714843 0 8.535156 3.820312 8.535156 8.535156v102.398438c0 4.710937-3.820313 8.53125-8.535156 8.53125zm0 0"/>
    <path d="m93.867188 68.765625h-85.332032c-4.714844 0-8.535156-3.820313-8.535156-8.53125 0-4.714844 3.820312-8.535156 8.535156-8.535156h85.332032c4.710937 0 8.53125 3.820312 8.53125 8.535156 0 4.710937-3.820313 8.53125-8.53125 8.53125zm0 0"/>
    <path d="m25.601562 94.367188c-3.453124 0-6.5625-2.082032-7.882812-5.269532s-.589844-6.855468 1.847656-9.296875l51.199219-51.199219c2.144531-2.21875 5.316406-3.109374 8.300781-2.328124s5.3125 3.109374 6.09375 6.09375c.78125 2.984374-.109375 6.15625-2.328125 8.300781l-51.199219 51.199219c-1.601562 1.601562-3.769531 2.5-6.03125 2.5zm0 0"/>
    <path d="m76.800781 94.367188c-2.265625 0-4.433593-.898438-6.035156-2.5l-51.199219-51.199219c-3.234375-3.351563-3.1875-8.671875.105469-11.964844 3.289063-3.289063 8.613281-3.335937 11.960937-.101563l51.199219 51.199219c2.441407 2.441407 3.171875 6.109375 1.851563 9.296875-1.320313 3.1875-4.433594 5.269532-7.882813 5.269532zm0 0"/>
    <path d="m341.332031 213.832031h-170.664062c-4.714844 0-8.535157-3.820312-8.535157-8.53125 0-4.714843 3.820313-8.535156 8.535157-8.535156h170.664062c4.714844 0 8.535157 3.820313 8.535157 8.535156 0 4.710938-3.820313 8.53125-8.535157 8.53125zm0 0"/>
    <path d="m298.667969 247.964844h-85.335938c-4.710937 0-8.53125-3.820313-8.53125-8.53125 0-4.714844 3.820313-8.535156 8.53125-8.535156h85.335938c4.710937 0 8.53125 3.820312 8.53125 8.535156 0 4.710937-3.820313 8.53125-8.53125 8.53125zm0 0"/>
  </g>
  <path d="m503.464844 452.765625v17.066406h-494.929688v-17.066406c.027344-9.414063 7.652344-17.039063 17.066406-17.066406h460.796876c9.414062.027343 17.039062 7.652343 17.066406 17.066406zm0 0" fill="#5dc382"/>
</svg>
